<svg width="40" height="40" viewBox="0 0 40 40" fill="none" xmlns="http://www.w3.org/2000/svg">
    <g id="Baby">
        <path id="Vector"
            d="M20.9625 3.76563C20.8531 3.7599 20.7442 3.78301 20.6465 3.83264C20.5489 3.88228 20.4661 3.9567 20.4062 4.04844C18.7969 6.48125 18.75 8.71719 18.75 8.75C18.7507 8.93602 18.793 9.11953 18.8736 9.28715C18.9543 9.45476 19.0714 9.60226 19.2163 9.71889C19.3612 9.83551 19.5303 9.91832 19.7113 9.96128C19.8923 10.0042 20.0806 10.0063 20.2625 9.96719C20.5464 9.89919 20.7987 9.73675 20.9781 9.50651C21.1576 9.27626 21.2534 8.99188 21.25 8.7C21.256 8.52902 21.297 8.36109 21.3705 8.20661C21.444 8.05212 21.5484 7.91437 21.6773 7.80188C21.8062 7.68939 21.9568 7.60455 22.1198 7.55262C22.2828 7.5007 22.4548 7.48279 22.625 7.5C22.9387 7.53642 23.2276 7.68825 23.4356 7.92594C23.6435 8.16363 23.7556 8.47018 23.75 8.78594C23.7444 9.7805 23.3439 10.7321 22.6367 11.4314C21.9295 12.1307 20.9735 12.5204 19.9789 12.5148C18.9843 12.5092 18.0327 12.1088 17.3334 11.4016C16.6341 10.6944 16.2444 9.73831 16.25 8.74375C16.25 8.64531 16.2641 7.05938 17.1 4.99375C17.1423 4.88805 17.155 4.77279 17.1366 4.66042C17.1182 4.54805 17.0695 4.44284 16.9956 4.35615C16.9218 4.26946 16.8257 4.20458 16.7177 4.16853C16.6097 4.13247 16.4939 4.1266 16.3828 4.15156C12.6998 4.99757 9.42594 7.09886 7.12293 10.0949C4.81991 13.091 3.63127 16.7952 3.76093 20.5719C4.06249 29.175 11.1297 36.0937 19.7375 36.2344C23.9837 36.2994 28.0867 34.6996 31.1682 31.7773C34.2497 28.8551 36.0647 24.8427 36.2248 20.5989C36.3849 16.3552 34.8774 12.2174 32.0249 9.07129C29.1724 5.92517 25.2016 4.02073 20.9625 3.76563ZM12.5 19.9859C12.5 19.6151 12.61 19.2526 12.816 18.9442C13.022 18.6359 13.3149 18.3956 13.6575 18.2537C14.0001 18.1117 14.3771 18.0746 14.7408 18.147C15.1045 18.2193 15.4386 18.3979 15.7008 18.6601C15.963 18.9223 16.1416 19.2564 16.214 19.6201C16.2863 19.9839 16.2492 20.3609 16.1073 20.7035C15.9654 21.0461 15.725 21.3389 15.4167 21.5449C15.1083 21.751 14.7458 21.8609 14.375 21.8609C13.8777 21.8609 13.4008 21.6634 13.0492 21.3118C12.6975 20.9601 12.5 20.4832 12.5 19.9859ZM25.0422 28.5437C23.5295 29.4868 21.7826 29.9867 20 29.9867C18.2174 29.9867 16.4705 29.4868 14.9578 28.5437C14.6773 28.3668 14.4785 28.0856 14.4052 27.7621C14.332 27.4386 14.3902 27.0993 14.5672 26.8187C14.7441 26.5382 15.0253 26.3394 15.3488 26.2662C15.6723 26.1929 16.0116 26.2512 16.2922 26.4281C17.4055 27.1191 18.6897 27.4852 20 27.4852C21.3103 27.4852 22.5945 27.1191 23.7078 26.4281C23.8467 26.3405 24.0015 26.2811 24.1634 26.2533C24.3253 26.2255 24.491 26.2299 24.6512 26.2662C24.8114 26.3025 24.9629 26.3699 25.097 26.4647C25.2311 26.5595 25.3452 26.6798 25.4328 26.8187C25.5204 26.9577 25.5798 27.1125 25.6076 27.2743C25.6354 27.4362 25.631 27.602 25.5948 27.7621C25.5585 27.9223 25.491 28.0738 25.3962 28.2079C25.3014 28.342 25.1811 28.4561 25.0422 28.5437ZM25.625 21.8609C25.2542 21.8609 24.8916 21.751 24.5833 21.5449C24.275 21.3389 24.0346 21.0461 23.8927 20.7035C23.7508 20.3609 23.7137 19.9839 23.786 19.6201C23.8584 19.2564 24.0369 18.9223 24.2992 18.6601C24.5614 18.3979 24.8955 18.2193 25.2592 18.147C25.6229 18.0746 25.9999 18.1117 26.3425 18.2537C26.6851 18.3956 26.978 18.6359 27.184 18.9442C27.39 19.2526 27.5 19.6151 27.5 19.9859C27.5 20.4832 27.3025 20.9601 26.9508 21.3118C26.5992 21.6634 26.1223 21.8609 25.625 21.8609Z"
            fill="#2F80ED" />
    </g>
</svg>