<svg width="31" height="32" viewBox="0 0 31 32" fill="none" xmlns="http://www.w3.org/2000/svg">
<path d="M16.7776 0.765594C16.6758 0.760082 16.5744 0.782312 16.4834 0.830053C16.3925 0.877803 16.3154 0.949389 16.2596 1.03764C14.7611 3.37782 14.7174 5.52863 14.7174 5.56019C14.7181 5.73913 14.7575 5.91565 14.8325 6.07689C14.9077 6.23812 15.0167 6.38 15.1516 6.49219C15.2866 6.60437 15.444 6.68403 15.6126 6.72535C15.7811 6.76664 15.9564 6.76866 16.1258 6.73104C16.3902 6.66563 16.6251 6.50937 16.7922 6.2879C16.9593 6.06641 17.0485 5.79286 17.0453 5.5121C17.0509 5.34763 17.0891 5.18609 17.1575 5.03749C17.226 4.88888 17.3232 4.75638 17.4432 4.64817C17.5633 4.53996 17.7035 4.45835 17.8553 4.4084C18.007 4.35846 18.1672 4.34123 18.3257 4.35778C18.6178 4.39282 18.8868 4.53887 19.0805 4.76751C19.2741 4.99615 19.3784 5.29103 19.3732 5.59476C19.368 6.55146 18.9951 7.46683 18.3366 8.1395C17.6781 8.81218 16.7879 9.18704 15.8617 9.18165C14.9356 9.17627 14.0495 8.79111 13.3984 8.11084C12.7472 7.43056 12.3843 6.51087 12.3896 5.55418C12.3896 5.45949 12.4027 3.93394 13.181 1.94696C13.2204 1.84528 13.2323 1.73441 13.2151 1.62632C13.198 1.51822 13.1526 1.41702 13.0838 1.33363C13.0151 1.25024 12.9256 1.18783 12.8251 1.15315C12.7245 1.11847 12.6167 1.11282 12.5132 1.13683C9.08376 1.95063 6.03529 3.97192 3.89082 6.85389C1.74635 9.73591 0.639538 13.2991 0.760271 16.932C1.04107 25.2075 7.62175 31.8628 15.637 31.9982C19.5908 32.0607 23.4114 30.5218 26.2807 27.7108C29.1501 24.8998 30.8402 21.0402 30.9892 16.958C31.1383 12.8758 29.7346 8.89558 27.0785 5.86925C24.4223 2.84291 20.7249 1.01098 16.7776 0.765594ZM8.89772 16.3683C8.89772 16.0116 9.00015 15.6629 9.19196 15.3663C9.38378 15.0697 9.65652 14.8385 9.97553 14.7021C10.2945 14.5655 10.6456 14.5298 10.9843 14.5994C11.3229 14.669 11.634 14.8408 11.8782 15.093C12.1223 15.3452 12.2886 15.6666 12.356 16.0164C12.4234 16.3664 12.3888 16.729 12.2567 17.0586C12.1245 17.3881 11.9007 17.6698 11.6136 17.8679C11.3265 18.0662 10.9889 18.1719 10.6436 18.1719C10.1806 18.1719 9.7365 17.9819 9.40911 17.6437C9.08162 17.3054 8.89772 16.8467 8.89772 16.3683ZM20.5765 24.6003C19.1679 25.5075 17.5413 25.9883 15.8814 25.9883C14.2215 25.9883 12.5949 25.5075 11.1863 24.6003C10.9251 24.4301 10.74 24.1596 10.6718 23.8484C10.6036 23.5373 10.6578 23.2109 10.8226 22.941C10.9873 22.6711 11.2492 22.4799 11.5504 22.4095C11.8516 22.339 12.1676 22.3951 12.4289 22.5652C13.4655 23.2299 14.6613 23.5821 15.8814 23.5821C17.1015 23.5821 18.2973 23.2299 19.3339 22.5652C19.4633 22.481 19.6074 22.4238 19.7582 22.3971C19.9089 22.3703 20.0632 22.3746 20.2124 22.4095C20.3616 22.4444 20.5026 22.5092 20.6275 22.6004C20.7524 22.6916 20.8586 22.8073 20.9402 22.941C21.0218 23.0747 21.0771 23.2236 21.103 23.3792C21.1288 23.5349 21.1247 23.6944 21.091 23.8484C21.0572 24.0025 20.9944 24.1483 20.9061 24.2773C20.8178 24.4063 20.7058 24.516 20.5765 24.6003ZM21.1192 18.1719C20.7739 18.1719 20.4362 18.0662 20.1492 17.8679C19.8621 17.6698 19.6382 17.3881 19.5061 17.0586C19.374 16.729 19.3394 16.3664 19.4068 16.0164C19.4742 15.6666 19.6404 15.3452 19.8846 15.093C20.1288 14.8408 20.4399 14.669 20.7785 14.5994C21.1172 14.5298 21.4682 14.5655 21.7873 14.7021C22.1063 14.8385 22.379 15.0697 22.5708 15.3663C22.7626 15.6629 22.8651 16.0116 22.8651 16.3683C22.8651 16.8467 22.6812 17.3054 22.3537 17.6437C22.0263 17.9819 21.5822 18.1719 21.1192 18.1719Z" fill="#2F80ED"/>
</svg>
