<svg width="32" height="32" viewBox="0 0 32 32" fill="none" xmlns="http://www.w3.org/2000/svg">
<g id="Brain">
<path id="Vector" d="M26.5 9.5V9C26.4987 7.91656 26.1774 6.85764 25.5765 5.95612C24.9755 5.0546 24.1217 4.35065 23.1222 3.9326C22.1227 3.51454 21.0219 3.40101 19.9581 3.60625C18.8943 3.81149 17.9148 4.32636 17.1425 5.08625C17.0968 5.13229 17.0607 5.18693 17.0362 5.247C17.0118 5.30707 16.9994 5.37139 17 5.43625V16.5263C17.0002 16.6164 17.0248 16.7048 17.0712 16.7821C17.1176 16.8594 17.184 16.9227 17.2634 16.9654C17.3428 17.0081 17.4323 17.0285 17.5223 17.0244C17.6124 17.0204 17.6997 16.9921 17.775 16.9425C18.7259 16.3328 19.8304 16.0059 20.96 16C21.2214 15.9951 21.4748 16.0907 21.668 16.2669C21.8613 16.4431 21.9796 16.6867 21.9987 16.9475C22.0059 17.0832 21.9853 17.2189 21.9382 17.3463C21.8912 17.4738 21.8186 17.5903 21.7251 17.6888C21.6315 17.7873 21.5188 17.8657 21.3939 17.9192C21.2691 17.9727 21.1346 18.0002 20.9987 18C19.9379 18 18.9204 18.4214 18.1703 19.1716C17.4202 19.9217 16.9987 20.9391 16.9987 22V26.235C16.9986 26.3098 17.0153 26.3837 17.0475 26.4512C17.0798 26.5187 17.1267 26.5781 17.185 26.625C17.8946 27.2123 18.7301 27.628 19.6265 27.8398C20.5229 28.0516 21.4561 28.0539 22.3535 27.8464C23.2509 27.6388 24.0884 27.2272 24.8009 26.6433C25.5133 26.0595 26.0815 25.3192 26.4612 24.48C26.4995 24.3956 26.5135 24.3023 26.5018 24.2104C26.49 24.1185 26.453 24.0316 26.3948 23.9595C26.3366 23.8875 26.2595 23.833 26.1721 23.8022C26.0847 23.7713 25.9905 23.7654 25.9 23.785C25.2767 23.9278 24.6394 24 24 24H23.0337C22.7757 24.0032 22.5261 23.9087 22.3348 23.7355C22.1436 23.5624 22.0249 23.3233 22.0025 23.0662C21.9934 22.9295 22.0125 22.7923 22.0587 22.6632C22.1049 22.5341 22.1771 22.4159 22.2709 22.3159C22.3647 22.2159 22.478 22.1363 22.6038 22.0819C22.7297 22.0276 22.8654 21.9997 23.0025 22H24.0025C25.0472 22.0016 26.0768 21.7494 27.0025 21.265C28.0988 20.694 29.0095 19.8223 29.6279 18.7521C30.2464 17.6819 30.5468 16.4576 30.4941 15.2226C30.4413 13.9877 30.0376 12.7934 29.3301 11.7798C28.6227 10.7663 27.6409 9.9754 26.5 9.5ZM25 14H24.5C23.3065 14 22.1619 13.5259 21.318 12.682C20.4741 11.8381 20 10.6935 20 9.5V9C20 8.73478 20.1053 8.48043 20.2929 8.29289C20.4804 8.10536 20.7348 8 21 8C21.2652 8 21.5195 8.10536 21.7071 8.29289C21.8946 8.48043 22 8.73478 22 9V9.5C22 9.82831 22.0646 10.1534 22.1903 10.4567C22.3159 10.76 22.5001 11.0356 22.7322 11.2678C23.2011 11.7366 23.8369 12 24.5 12H25C25.2652 12 25.5195 12.1054 25.7071 12.2929C25.8946 12.4804 26 12.7348 26 13C26 13.2652 25.8946 13.5196 25.7071 13.7071C25.5195 13.8946 25.2652 14 25 14ZM11 3.5C9.54179 3.50165 8.14381 4.08165 7.11272 5.11274C6.08162 6.14383 5.50163 7.54182 5.49998 9V9.5C4.35914 9.97565 3.37757 10.7667 2.67038 11.7805C1.96318 12.7942 1.55969 13.9885 1.50721 15.2234C1.45472 16.4583 1.75543 17.6826 2.37406 18.7527C2.9927 19.8228 3.90361 20.6943 4.99998 21.265C5.92569 21.7494 6.95521 22.0016 7.99998 22H8.96623C9.22465 21.9962 9.47492 22.0904 9.66671 22.2636C9.8585 22.4368 9.97757 22.6763 9.99998 22.9338C10.0091 23.0705 9.98992 23.2077 9.94375 23.3368C9.89758 23.4659 9.82536 23.5841 9.73158 23.6841C9.6378 23.7841 9.52446 23.8637 9.39861 23.9181C9.27275 23.9724 9.13706 24.0003 8.99998 24H7.99998C7.36008 24.0003 6.72222 23.9277 6.09873 23.7838C6.00824 23.764 5.91406 23.7698 5.82666 23.8004C5.73927 23.8311 5.66211 23.8854 5.60379 23.9574C5.54546 24.0293 5.50826 24.116 5.49633 24.2079C5.4844 24.2997 5.49821 24.3931 5.53623 24.4775C5.91589 25.3169 6.48402 26.0574 7.19645 26.6415C7.90888 27.2256 8.74642 27.6376 9.64395 27.8453C10.5415 28.0531 11.4748 28.0511 12.3715 27.8394C13.2681 27.6278 14.1038 27.2122 14.8137 26.625C14.872 26.5781 14.9189 26.5187 14.9512 26.4512C14.9834 26.3837 15.0001 26.3098 15 26.235V22C15 20.9391 14.5786 19.9217 13.8284 19.1716C13.0783 18.4214 12.0608 18 11 18C10.8641 18.0002 10.7296 17.9727 10.6048 17.9192C10.4799 17.8657 10.3672 17.7873 10.2736 17.6888C10.1801 17.5903 10.1075 17.4738 10.0605 17.3463C10.0134 17.2189 9.99284 17.0832 9.99998 16.9475C10.0191 16.6865 10.1376 16.4427 10.3311 16.2665C10.5246 16.0902 10.7783 15.9948 11.04 16C12.1695 16.0059 13.2741 16.3328 14.225 16.9425C14.3003 16.9921 14.3876 17.0204 14.4776 17.0244C14.5677 17.0285 14.6571 17.0081 14.7366 16.9654C14.816 16.9227 14.8824 16.8594 14.9288 16.7821C14.9751 16.7048 14.9997 16.6164 15 16.5263V5.43625C15.0004 5.305 14.9492 5.17884 14.8575 5.085C13.8307 4.06903 12.4444 3.49942 11 3.5ZM12 9.5C12 10.6935 11.5259 11.8381 10.682 12.682C9.83804 13.5259 8.69345 14 7.49998 14H6.99998C6.73476 14 6.48041 13.8946 6.29287 13.7071C6.10533 13.5196 5.99998 13.2652 5.99998 13C5.99998 12.7348 6.10533 12.4804 6.29287 12.2929C6.48041 12.1054 6.73476 12 6.99998 12H7.49998C7.82828 12 8.15337 11.9353 8.45669 11.8097C8.76 11.6841 9.0356 11.4999 9.26774 11.2678C9.49989 11.0356 9.68404 10.76 9.80968 10.4567C9.93531 10.1534 9.99998 9.82831 9.99998 9.5V9C9.99998 8.73478 10.1053 8.48043 10.2929 8.29289C10.4804 8.10536 10.7348 8 11 8C11.2652 8 11.5195 8.10536 11.7071 8.29289C11.8946 8.48043 12 8.73478 12 9V9.5Z" fill="#2F80ED"/>
</g>
</svg>
